<svg width="191" height="22" viewBox="0 0 191 22" fill="none" xmlns="http://www.w3.org/2000/svg">
<g clip-path="url(#clip0_2856_142086)">
<path fill-rule="evenodd" clip-rule="evenodd" d="M46.9558 21.4456L50.1951 17.4259H63.3797L64.8521 21.4456H71.6468L63.8074 0.554432H56.6159L39.3484 21.4456H46.9558ZM53.857 12.8628L59.2348 6.15066L61.7007 12.8628H53.857ZM79.5363 14.3337L79.662 13.6945H72.5569L72.4667 14.1532C72.3732 14.6285 72.327 15.1208 72.327 15.6295C72.327 16.7662 72.5986 17.7724 73.1729 18.6252C73.7491 19.4809 74.6084 20.1495 75.7207 20.6359L75.7244 20.6376L75.7281 20.6391C77.9098 21.5633 80.9719 22 84.8522 22C87.6733 22 90.0998 21.8136 92.1224 21.4331C94.1539 21.0694 95.8443 20.4594 97.1626 19.5818L97.1642 19.5808C98.1891 18.8941 98.9722 18.0173 99.5139 16.9613C100.073 15.9146 100.355 14.8316 100.355 13.7167C100.355 12.1316 99.7426 10.8714 98.4213 10.0582C97.2023 9.29478 95.4835 8.83357 93.335 8.625L93.3287 8.62438L84.6852 7.93091C83.5946 7.84024 82.9001 7.68212 82.5208 7.50045C82.2455 7.36864 82.0973 7.17562 82.0973 6.81403C82.0973 6.3267 82.3248 5.91251 82.8458 5.54472L82.858 5.53611L82.8697 5.527C83.7702 4.82505 85.5265 4.39676 88.3533 4.39676C90.3904 4.39676 91.8617 4.60796 92.8269 4.98413L92.8339 4.98687L92.841 4.98946C93.3012 5.15763 93.6083 5.37756 93.8049 5.63559C93.9996 5.89117 94.1154 6.22283 94.1184 6.6579L94.0411 7.64019H101.083L101.166 7.17268C101.236 6.77782 101.271 6.39018 101.271 6.01011C101.271 3.98672 100.186 2.44096 98.0781 1.43586C96.0247 0.456677 93.0281 0 89.1713 0C83.8431 0 79.8881 0.852725 77.4817 2.69171L77.48 2.69295L77.4784 2.6942C76.6493 3.33644 76.0072 4.09173 75.5561 4.95659C75.1052 5.82115 74.8791 6.72837 74.8791 7.6734C74.8791 9.18192 75.504 10.3888 76.8153 11.1948C78.0538 11.9561 79.7811 12.4177 81.9319 12.6265L81.9339 12.6267L90.4172 13.4037L90.4239 13.4042C91.3824 13.4748 92.0286 13.6385 92.4271 13.8496C92.709 13.9989 92.9078 14.2631 92.9078 14.7979C92.9078 15.122 92.8098 15.4219 92.6075 15.7075C92.3976 16.0039 92.1186 16.2486 91.763 16.4445L91.7588 16.4467L91.7547 16.4491C90.5181 17.153 88.5254 17.5478 85.6702 17.5478C83.4821 17.5478 81.9087 17.309 80.884 16.8831C80.4137 16.6877 80.0831 16.4227 79.8639 16.0898C79.6413 15.7517 79.5124 15.3111 79.5124 14.7424C79.5124 14.5277 79.5236 14.3983 79.5363 14.3337ZM128.798 21.4456L133.564 0.554432H127.075L125.275 8.37193H110.825L112.624 0.554432H106.133L101.368 21.4456H107.857L109.755 13.1014H124.206L122.309 21.4456H128.798ZM158.211 16.8548H140.049L140.973 12.8519H158.088L159.089 8.42738H141.975L142.71 5.14525H160.407L161.483 0.554432H137.288L132.522 21.4456H157.135L158.211 16.8548ZM187.075 17.6083C188.337 16.4417 189.276 15.0819 189.893 13.5351C190.53 11.9741 190.844 10.2773 190.844 8.44961C190.844 5.84999 189.771 3.82879 187.564 2.48697C185.44 1.18301 182.723 0.554432 179.464 0.554432H164.991L160.225 21.4456H175.276C180.295 21.4456 184.26 20.1884 187.073 17.61L187.075 17.6083ZM181.843 14.1724L181.841 14.1746L181.839 14.1767C180.191 15.9132 177.87 16.7993 174.785 16.7993H167.784L170.444 5.20069H177.697C179.888 5.20069 181.411 5.5685 182.376 6.21268C183.312 6.8372 183.822 7.78836 183.822 9.17037C183.822 10.1292 183.648 11.0396 183.301 11.9044L183.299 11.9076L183.298 11.9108C182.974 12.753 182.489 13.5055 181.843 14.1724ZM42.4621 13.5332C41.8454 15.0806 40.906 16.4409 39.6435 17.6078L39.6426 17.6086L39.6417 17.6094C36.8289 20.1879 32.864 21.445 27.8448 21.445H12.7938L12.7943 21.4427H6.12101V20.5346H13.0015L13.0208 20.4499V19.6265H13.2086L13.2087 19.6263H7.84595V18.7183H11.2958V17.8104H13.6229L13.8301 16.9022H12.1583V15.9941L13.8832 15.9941V15.086H14.2444L14.2444 15.0859H10.4334V14.1778H12.1583V13.27H8.70842V12.3619H14.8659L15.0731 11.4537H12.1583V10.5456H15.2802L15.2802 10.5454H13.8832V9.63732H15.4874L15.4966 9.59695H9.53214V8.66175H15.71L15.9017 7.82125H10.4334V6.91316H13.8832V6.00514H12.1583H11.2958V5.09705H12.1583H16.5232L16.7303 4.18903H9.57089L9.57092 3.28077L16.9375 3.28091L17.1446 2.37272H13.0208V1.46467H9.57089V0.55658H17.559L17.5596 0.553894H32.0329C35.2921 0.553894 38.0101 1.18271 40.1338 2.48719C42.3406 3.82901 43.413 5.84994 43.413 8.44907C43.413 10.2763 43.0985 11.9726 42.4621 13.5332ZM9.57092 3.28077H8.70842V2.37269H9.57092V3.28077ZM17.3518 1.46467L17.3333 1.54581V1.46467H17.3518ZM34.4094 14.174L34.4114 14.1719C35.0573 13.505 35.5423 12.7524 35.8669 11.9102L35.8682 11.9071L35.8694 11.9039C36.2165 11.0391 36.3912 10.1287 36.3912 9.16984C36.3912 7.78782 35.8811 6.83666 34.945 6.21215C33.9794 5.56796 32.4563 5.20015 30.2661 5.20015H23.0129L20.3526 16.7988H27.354C30.4386 16.7988 32.7596 15.9126 34.4073 14.1762L34.4094 14.174ZM7.84559 0.55658H6.98309V1.46467H7.84559V0.55658ZM8.70842 5.09705H9.57092V6.00514H8.70842V5.09705ZM8.70845 6.91316H7.84595V7.82125H8.70845V6.91316ZM5.25815 6.91316H6.12065V7.82125H5.25815V6.91316ZM7.84559 8.72926H6.98309V9.63735H7.84559V8.72926ZM8.70842 14.1778H9.57092V15.0859H8.70842V14.1778ZM10.4334 10.5456H9.57089V11.4537H10.4334V10.5456ZM5.25815 14.1778H6.12065V15.0859H5.25815V14.1778ZM10.4334 16.9022H9.57089V17.8102H10.4334V16.9022ZM4.39568 16.9022H5.25818V17.8102H4.39568V16.9022ZM6.12065 18.7183H5.25815V19.6263H6.12065V18.7183ZM0.945801 20.5346H1.8083V21.4427H0.945801V20.5346ZM4.3961 20.5346H3.5336V21.4427H4.3961V20.5346ZM1.80827 15.9941H2.67077V16.9022H1.80827V15.9941ZM7.84559 12.3619H6.98309V13.27H7.84559V12.3619ZM4.39568 12.3619H5.25818V13.27H4.39568V12.3619ZM4.3961 14.1778H3.5336V15.0859H4.3961V14.1778ZM6.98309 10.5456H7.84559V11.4537H6.98309V10.5456ZM6.12065 10.5456H5.25815V11.4537H6.12065V10.5456ZM6.98309 4.18879H7.84559V5.09688H6.98309V4.18879ZM7.84559 15.9941H6.98309V16.9022H7.84559V15.9941ZM2.67074 18.7183H3.53324V19.6263H2.67074V18.7183ZM2.67077 12.3619H1.80827V13.27H2.67077V12.3619ZM3.5336 8.72926H4.3961V9.63735H3.5336V8.72926ZM5.25818 5.09705H4.39568V6.00514H5.25818V5.09705ZM4.39568 0.55658H5.25818V1.46467H4.39568V0.55658ZM6.12065 2.37269H5.25815V3.28077H6.12065V2.37269Z" fill="url(#paint0_linear_2856_142086)"/>
</g>
<defs>
<linearGradient id="paint0_linear_2856_142086" x1="32.6453" y1="25.4375" x2="207.781" y2="-7.70854" gradientUnits="userSpaceOnUse">
<stop stop-color="#F7E5DF"/>
<stop offset="1" stop-color="#AFFEA2"/>
<stop offset="1" stop-color="#AFDDB0"/>
</linearGradient>
<clipPath id="clip0_2856_142086">
<rect width="191" height="22" fill="white"/>
</clipPath>
</defs>
</svg>