<svg width="232" height="203" viewBox="0 0 232 203" fill="none" xmlns="http://www.w3.org/2000/svg">
<rect x="198.429" y="201.5" width="165.066" height="16" transform="rotate(-90 198.429 201.5)" fill="url(#paint0_linear_2260_111472)"/>
<rect x="167.857" y="201.5" width="149.791" height="16" transform="rotate(-90 167.857 201.5)" fill="url(#paint1_linear_2260_111472)"/>
<rect x="137.286" y="201.5" width="120.808" height="16" transform="rotate(-90 137.286 201.5)" fill="url(#paint2_linear_2260_111472)"/>
<rect x="106.571" y="201.5" width="79.6831" height="16" transform="rotate(-90 106.571 201.5)" fill="url(#paint3_linear_2260_111472)"/>
<rect x="76.2857" y="201.5" width="64.7998" height="16" transform="rotate(-90 76.2857 201.5)" fill="url(#paint4_linear_2260_111472)"/>
<rect x="46" y="201.5" width="51.0915" height="16" transform="rotate(-90 46 201.5)" fill="url(#paint5_linear_2260_111472)"/>
<rect x="14.7142" y="201.5" width="22.8915" height="16" transform="rotate(-90 14.7142 201.5)" fill="url(#paint6_linear_2260_111472)"/>
<defs>
<linearGradient id="paint0_linear_2260_111472" x1="363.495" y1="209.416" x2="198.429" y2="209.416" gradientUnits="userSpaceOnUse">
<stop stop-color="#36F097"/>
<stop offset="1" stop-color="#36F097" stop-opacity="0.2"/>
</linearGradient>
<linearGradient id="paint1_linear_2260_111472" x1="317.649" y1="209.416" x2="167.857" y2="209.416" gradientUnits="userSpaceOnUse">
<stop stop-color="#36F097"/>
<stop offset="1" stop-color="#36F097" stop-opacity="0.2"/>
</linearGradient>
<linearGradient id="paint2_linear_2260_111472" x1="258.094" y1="209.416" x2="137.286" y2="209.416" gradientUnits="userSpaceOnUse">
<stop stop-color="#36F097"/>
<stop offset="1" stop-color="#36F097" stop-opacity="0.2"/>
</linearGradient>
<linearGradient id="paint3_linear_2260_111472" x1="186.255" y1="209.416" x2="106.571" y2="209.416" gradientUnits="userSpaceOnUse">
<stop stop-color="#36F097"/>
<stop offset="1" stop-color="#36F097" stop-opacity="0.2"/>
</linearGradient>
<linearGradient id="paint4_linear_2260_111472" x1="141.085" y1="209.416" x2="76.2857" y2="209.416" gradientUnits="userSpaceOnUse">
<stop stop-color="#36F097"/>
<stop offset="1" stop-color="#36F097" stop-opacity="0.2"/>
</linearGradient>
<linearGradient id="paint5_linear_2260_111472" x1="97.0915" y1="209.416" x2="46" y2="209.416" gradientUnits="userSpaceOnUse">
<stop stop-color="#36F097"/>
<stop offset="1" stop-color="#36F097" stop-opacity="0.2"/>
</linearGradient>
<linearGradient id="paint6_linear_2260_111472" x1="37.6057" y1="209.416" x2="14.7142" y2="209.416" gradientUnits="userSpaceOnUse">
<stop stop-color="#36F097"/>
<stop offset="1" stop-color="#36F097" stop-opacity="0.2"/>
</linearGradient>
</defs>
</svg>
