<svg width="266" height="214" viewBox="0 0 266 214" fill="none" xmlns="http://www.w3.org/2000/svg">
<rect width="89.9831" height="16" transform="matrix(1 8.74228e-08 8.74228e-08 -1 136 35.6)" fill="url(#paint0_linear_2260_111473)"/>
<rect width="81.6144" height="16" transform="matrix(1 8.74228e-08 8.74228e-08 -1 136 75.2)" fill="url(#paint1_linear_2260_111473)"/>
<rect width="65.7352" height="16" transform="matrix(1 8.74228e-08 8.74228e-08 -1 136 114.8)" fill="url(#paint2_linear_2260_111473)"/>
<rect width="43.204" height="16" transform="matrix(1 8.74228e-08 8.74228e-08 -1 136 154.543)" fill="url(#paint3_linear_2260_111473)"/>
<rect width="12.0894" height="16" transform="matrix(1 8.74228e-08 8.74228e-08 -1 136 194.286)" fill="url(#paint4_linear_2260_111473)"/>
<rect x="134" y="35.6" width="93.5165" height="16" transform="rotate(180 134 35.6)" fill="url(#paint5_linear_2260_111473)"/>
<rect x="134" y="75.2" width="84.8227" height="16" transform="rotate(180 134 75.2)" fill="url(#paint6_linear_2260_111473)"/>
<rect x="134" y="114.8" width="68.3269" height="16" transform="rotate(180 134 114.8)" fill="url(#paint7_linear_2260_111473)"/>
<rect x="134" y="154.543" width="44.9206" height="16" transform="rotate(180 134 154.543)" fill="url(#paint8_linear_2260_111473)"/>
<rect x="134" y="194.286" width="12.5977" height="16" transform="rotate(180 134 194.286)" fill="url(#paint9_linear_2260_111473)"/>
<defs>
<linearGradient id="paint0_linear_2260_111473" x1="89.9831" y1="7.91579" x2="-2.34672e-06" y2="7.91576" gradientUnits="userSpaceOnUse">
<stop stop-color="#36F097"/>
<stop offset="1" stop-color="#36F097" stop-opacity="0.2"/>
</linearGradient>
<linearGradient id="paint1_linear_2260_111473" x1="81.6144" y1="7.91579" x2="-2.12847e-06" y2="7.91577" gradientUnits="userSpaceOnUse">
<stop stop-color="#36F097"/>
<stop offset="1" stop-color="#36F097" stop-opacity="0.2"/>
</linearGradient>
<linearGradient id="paint2_linear_2260_111473" x1="65.7352" y1="7.91579" x2="-1.71435e-06" y2="7.91578" gradientUnits="userSpaceOnUse">
<stop stop-color="#36F097"/>
<stop offset="1" stop-color="#36F097" stop-opacity="0.2"/>
</linearGradient>
<linearGradient id="paint3_linear_2260_111473" x1="43.204" y1="7.91579" x2="-1.12674e-06" y2="7.91578" gradientUnits="userSpaceOnUse">
<stop stop-color="#36F097"/>
<stop offset="1" stop-color="#36F097" stop-opacity="0.2"/>
</linearGradient>
<linearGradient id="paint4_linear_2260_111473" x1="12.0894" y1="7.91579" x2="-3.15287e-07" y2="7.91579" gradientUnits="userSpaceOnUse">
<stop stop-color="#36F097"/>
<stop offset="1" stop-color="#36F097" stop-opacity="0.2"/>
</linearGradient>
<linearGradient id="paint5_linear_2260_111473" x1="227.516" y1="43.5158" x2="134" y2="43.5158" gradientUnits="userSpaceOnUse">
<stop stop-color="#36F097"/>
<stop offset="1" stop-color="#36F097" stop-opacity="0.2"/>
</linearGradient>
<linearGradient id="paint6_linear_2260_111473" x1="218.823" y1="83.1158" x2="134" y2="83.1158" gradientUnits="userSpaceOnUse">
<stop stop-color="#36F097"/>
<stop offset="1" stop-color="#36F097" stop-opacity="0.2"/>
</linearGradient>
<linearGradient id="paint7_linear_2260_111473" x1="202.327" y1="122.716" x2="134" y2="122.716" gradientUnits="userSpaceOnUse">
<stop stop-color="#36F097"/>
<stop offset="1" stop-color="#36F097" stop-opacity="0.2"/>
</linearGradient>
<linearGradient id="paint8_linear_2260_111473" x1="178.921" y1="162.459" x2="134" y2="162.459" gradientUnits="userSpaceOnUse">
<stop stop-color="#36F097"/>
<stop offset="1" stop-color="#36F097" stop-opacity="0.2"/>
</linearGradient>
<linearGradient id="paint9_linear_2260_111473" x1="146.598" y1="202.202" x2="134" y2="202.202" gradientUnits="userSpaceOnUse">
<stop stop-color="#36F097"/>
<stop offset="1" stop-color="#36F097" stop-opacity="0.2"/>
</linearGradient>
</defs>
</svg>
