<svg width="200" height="200" viewBox="0 0 200 200" fill="none" xmlns="http://www.w3.org/2000/svg">
<path d="M194.871 103.902C194.871 125.057 187.944 145.62 175.165 162.403C162.386 179.186 144.469 191.25 124.193 196.726C103.916 202.201 82.4139 200.78 63.0202 192.685C43.6264 184.59 27.4253 170.271 16.9295 151.951L33.446 142.342C41.8427 156.998 54.8036 168.452 70.3186 174.929C85.8336 181.405 103.036 182.541 119.257 178.161C135.478 173.781 149.811 164.129 160.035 150.703C170.258 137.277 175.799 120.826 175.799 103.902L194.871 103.902Z" fill="#C99CFC"/>
<path d="M16.9295 151.951C7.49942 135.491 3.12453 116.583 4.35804 97.6174C5.59155 78.6518 12.3781 60.4807 23.8594 45.402C35.3407 30.3233 51.0011 19.0142 68.8603 12.9048C86.7195 6.79544 105.975 6.16018 124.193 11.0794L119.257 29.644C104.683 25.7086 89.278 26.2169 74.9907 31.1044C60.7033 35.9919 48.175 45.0391 38.9899 57.1021C29.8049 69.1651 24.3757 83.7019 23.3889 98.8744C22.4021 114.047 25.902 129.174 33.446 142.342L16.9295 151.951Z" fill="#9BFCC8"/>
<path d="M124.193 11.0794C140.361 15.4453 155.105 24.0233 166.941 35.9513C178.777 47.8792 187.289 62.7368 191.621 79.0306L173.199 84.005C169.734 70.9699 162.924 59.0839 153.455 49.5415C143.986 39.9992 132.191 33.1367 119.257 29.644L124.193 11.0794Z" fill="#9CCFFC"/>
<path d="M191.621 79.0306C193.778 87.1426 194.871 95.5044 194.871 103.903L175.799 103.903C175.799 97.184 174.925 90.4945 173.199 84.005L191.621 79.0306Z" fill="#EAF3C4"/>
</svg>
