<svg width="230" height="200" viewBox="0 0 230 200" fill="none" xmlns="http://www.w3.org/2000/svg">
<path d="M68.6815 175.787C65.8743 180.381 59.8646 181.909 55.5171 178.734C40.6821 167.902 29.1439 153.187 22.2792 136.184C14.2102 116.199 13.0453 94.1603 18.9635 73.4604C24.8818 52.7605 37.5552 34.5463 55.0335 21.621C72.5118 8.6957 93.8262 1.77562 115.696 1.92573C137.567 2.07584 158.781 9.28784 176.074 22.4518C193.367 35.6158 205.78 54.0021 211.404 74.7812C217.028 95.5604 215.55 117.581 207.198 137.453C200.092 154.361 188.346 168.916 173.357 179.544C168.966 182.658 162.979 181.046 160.237 176.414V176.414C157.436 171.684 159.095 165.623 163.488 162.319C174.619 153.948 183.362 142.803 188.758 129.963C195.44 114.064 196.622 96.4483 192.123 79.825C187.624 63.2017 177.693 48.4926 163.859 37.9614C150.025 27.4303 133.053 21.6607 115.557 21.5406C98.0609 21.4205 81.0094 26.9566 67.0268 37.2968C53.0442 47.637 42.9054 62.2084 38.1708 78.7683C33.4362 95.3282 34.3682 112.959 40.8233 128.947C46.0362 141.859 54.6178 153.121 65.6261 161.643C69.974 165.009 71.5489 171.096 68.6815 175.787V175.787Z" fill="#3A3A3A"/>
<path d="M70.0353 176.568C67.3095 181.21 61.3277 182.843 56.926 179.744C45.7554 171.881 36.3273 161.813 29.2671 150.146C20.54 135.724 15.7227 119.342 15.2759 102.567C14.8291 85.7922 18.7678 69.1849 26.7151 54.334C34.6625 39.4832 46.3528 26.8855 60.6677 17.746C74.9827 8.60646 91.4435 3.23085 108.476 2.13333C125.508 1.03581 142.541 4.2531 157.947 11.4775C173.353 18.7018 186.616 29.6916 196.467 43.3955C204.354 54.3681 209.844 66.787 212.634 79.8684C213.786 85.2691 209.749 90.2094 204.256 90.777V90.777C198.79 91.3417 193.961 87.3546 192.681 82.0111C190.339 72.2379 186.104 62.9662 180.173 54.7164C172.293 43.7532 161.682 34.9614 149.358 29.1819C137.033 23.4025 123.406 20.8286 109.78 21.7066C96.1548 22.5847 82.9862 26.8852 71.5342 34.1968C60.0822 41.5084 50.73 51.5865 44.3721 63.4672C38.0142 75.3479 34.8633 88.6337 35.2207 102.054C35.5781 115.474 39.432 128.579 46.4137 140.117C51.6772 148.815 58.5858 156.402 66.7346 162.486C71.1387 165.774 72.8185 171.829 70.0353 176.568V176.568Z" fill="url(#paint0_linear_2260_111482)"/>
<defs>
<linearGradient id="paint0_linear_2260_111482" x1="194.537" y1="121.111" x2="43.0002" y2="178.201" gradientUnits="userSpaceOnUse">
<stop stop-color="#AFFEA2"/>
<stop offset="0.338542" stop-color="#FF8C61"/>
<stop offset="0.755208" stop-color="#FFA15D"/>
<stop offset="1" stop-color="#FF596A"/>
</linearGradient>
</defs>
</svg>
