<svg width="232" height="200" viewBox="0 0 232 200" fill="none" xmlns="http://www.w3.org/2000/svg">
<path d="M1 148.742C5.64001 146.159 8.92276 145.283 13.9645 145.283C19.0063 145.283 21.6472 142.767 26.929 142.767C32.03 142.767 34.3126 147.729 39.4134 147.799C44.6936 147.871 47.3361 142.767 52.3779 142.767C59.2145 142.767 58.5069 158.345 65.3424 158.176C72.0402 158.011 72.0647 145.283 77.8267 142.767C83.4099 140.33 84.9061 132.704 90.7912 132.704C96.7933 132.704 97.5524 142.937 103.276 142.767C109.925 142.57 109.589 128.302 116.24 128.302C122.891 128.302 122.554 142.767 129.205 142.767C138.088 142.767 135.581 121.89 141.689 110.063C147.211 99.3711 146.01 77.673 154.653 77.673C161.376 77.673 159.935 82.3899 167.138 85.2201C175.365 88.4528 173.14 102.83 180.102 108.491C186.074 113.346 186.344 124.843 193.067 124.843C200.582 124.843 199.245 107.627 205.551 105.66C210.593 104.088 211.755 107.547 218.516 107.547C225.478 107.547 229.18 99.1869 231 89.9371" stroke="url(#paint0_linear_2260_111279)" stroke-width="2"/>
<circle opacity="0.2" cx="103.395" cy="142.994" r="6" fill="url(#paint1_linear_2260_111279)"/>
<circle cx="103.395" cy="142.994" r="3" fill="url(#paint2_linear_2260_111279)"/>
<path d="M1 36.4778C5.56159 49.3711 8.20251 57.8616 13.9645 59.7484C19.7265 61.6352 20.4468 65.7231 26.929 65.7231C33.4113 65.7231 34.3126 70.6848 39.4134 70.7546C44.6936 70.8268 47.3361 65.7231 52.3779 65.7231C59.2145 65.7231 61.5501 73.6811 65.3424 81.1319C71.5845 93.3961 73.7453 117.61 78.3069 117.61C84.309 117.61 85.5094 91.8239 90.7912 86.4778C95.5405 81.6708 97.5524 70.924 103.276 70.7546C109.925 70.5577 109.589 86.4778 116.24 86.4778C122.891 86.4778 122.554 70.7546 129.205 70.7546C138.088 70.7546 135.927 93.3961 141.689 93.3961C147.451 93.3961 149.852 101.258 154.653 101.258C159.455 101.258 159.695 107.233 167.138 108.805C175.617 110.596 174.13 127.22 180.102 132.075C186.074 136.93 188.265 148.428 193.067 148.428C198.829 148.428 200.509 129.245 205.551 129.245C210.593 129.245 213.954 146.226 218.516 146.226C223.557 146.226 224.038 133.962 231 133.962" stroke="url(#paint3_linear_2260_111279)" stroke-width="2"/>
<circle opacity="0.2" cx="103.395" cy="70.6667" r="6" fill="url(#paint4_linear_2260_111279)"/>
<circle cx="103.395" cy="70.6667" r="3" fill="url(#paint5_linear_2260_111279)"/>
<defs>
<linearGradient id="paint0_linear_2260_111279" x1="231" y1="117.501" x2="0.999999" y2="117.501" gradientUnits="userSpaceOnUse">
<stop stop-color="#3DFFDC"/>
<stop offset="1" stop-color="#3DFFDC" stop-opacity="0.2"/>
</linearGradient>
<linearGradient id="paint1_linear_2260_111279" x1="109.395" y1="142.931" x2="97.3946" y2="142.931" gradientUnits="userSpaceOnUse">
<stop stop-color="#3DFFDC"/>
<stop offset="1" stop-color="#3DFFDC" stop-opacity="0.2"/>
</linearGradient>
<linearGradient id="paint2_linear_2260_111279" x1="106.395" y1="142.962" x2="100.395" y2="142.962" gradientUnits="userSpaceOnUse">
<stop stop-color="#3DFFDC"/>
<stop offset="1" stop-color="#3DFFDC" stop-opacity="0.2"/>
</linearGradient>
<linearGradient id="paint3_linear_2260_111279" x1="231" y1="91.8635" x2="1" y2="91.8635" gradientUnits="userSpaceOnUse">
<stop stop-color="#1ED6FF"/>
<stop offset="1" stop-color="#1ED6FF" stop-opacity="0.2"/>
</linearGradient>
<linearGradient id="paint4_linear_2260_111279" x1="109.395" y1="70.6035" x2="97.3946" y2="70.6035" gradientUnits="userSpaceOnUse">
<stop stop-color="#1ED6FF"/>
<stop offset="1" stop-color="#1ED6FF" stop-opacity="0.2"/>
</linearGradient>
<linearGradient id="paint5_linear_2260_111279" x1="106.395" y1="70.6351" x2="100.395" y2="70.6351" gradientUnits="userSpaceOnUse">
<stop stop-color="#1ED6FF"/>
<stop offset="1" stop-color="#1ED6FF" stop-opacity="0.2"/>
</linearGradient>
</defs>
</svg>
