<svg width="230" height="200" viewBox="0 0 230 200" fill="none" xmlns="http://www.w3.org/2000/svg">
<path opacity="0.5" d="M227.588 9.66491C137.789 12.3559 84.0768 8.89098 2.2756 11.7014C1.19919 11.7384 0.330505 12.6227 0.330505 13.6997V27.1346C0.330505 28.2392 1.19042 29.1348 2.29499 29.1334C49.2158 29.0746 143.217 26.9825 227.623 29.0829C228.748 29.1108 229.67 28.2072 229.67 27.0825V11.6643C229.67 10.5355 228.716 9.6311 227.588 9.66491Z" fill="url(#paint0_linear_2260_111475)"/>
<path opacity="0.5" d="M227.746 28.972C131.312 24.6854 73.9711 50.8212 2.53273 44.6323C1.35735 44.5304 0.330505 45.4522 0.330505 46.632V62.1294C0.330505 63.1545 1.09927 64.0141 2.11989 64.1094C65.2628 70.0047 141.037 44.5519 227.588 47.3427C228.721 47.3792 229.67 46.4728 229.67 45.3389V30.9668C229.67 29.8998 228.812 29.0194 227.746 28.972Z" fill="url(#paint1_linear_2260_111475)"/>
<path opacity="0.5" d="M227.396 47.2803C129.234 43.5871 91.6899 89.0546 2.58763 84.3428C1.44726 84.2825 0.450336 85.177 0.434824 86.3189L0.354835 92.2069C0.340986 93.2263 1.10401 94.0954 2.11724 94.2083C74.6299 102.287 139.205 52.6174 227.201 57.1542C228.352 57.2135 229.339 56.3012 229.339 55.1484V49.2737C229.339 48.2032 228.466 47.3206 227.396 47.2803Z" fill="url(#paint2_linear_2260_111475)"/>
<path opacity="0.5" d="M227.916 66.0873C148.566 56.7149 92.2655 136.288 2.53012 129.735C1.35928 129.649 0.330505 130.567 0.330505 131.741V141.153C0.330505 142.201 1.16377 143.075 2.2102 143.139C99.0616 149.082 151.634 68.081 227.308 79.0487C228.533 79.2263 229.67 78.2907 229.67 77.0527V68.0581C229.67 67.0563 228.911 66.2048 227.916 66.0873Z" fill="url(#paint3_linear_2260_111475)"/>
<path opacity="0.5" d="M227.351 56.6956C128.434 55.3448 92.2018 115.172 2.51816 109.24C1.35535 109.163 0.330505 110.078 0.330505 111.244V117.003C0.330505 118.036 1.13421 118.902 2.16352 118.984C84.1354 125.556 138.52 57.9457 227.097 66.3795C228.282 66.4923 229.339 65.5689 229.339 64.3785V58.6877C229.339 57.6001 228.439 56.7104 227.351 56.6956Z" fill="url(#paint4_linear_2260_111475)"/>
<path opacity="0.5" d="M227.705 77.8589C125.596 75.2703 102.754 170.575 2.44625 168.16C1.31271 168.133 0.330505 169.037 0.330505 170.171V175.692C0.330505 176.774 1.23469 177.662 2.31636 177.682C111.508 179.713 125.995 83.7165 227.53 87.1016C228.671 87.1397 229.67 86.233 229.67 85.0919V79.8473C229.67 78.7717 228.78 77.8862 227.705 77.8589Z" fill="url(#paint5_linear_2260_111475)"/>
<path opacity="0.5" d="M227.373 122.115C125.349 119.089 105.488 179.755 2.43859 177.201C1.30866 177.173 0.330505 178.077 0.330505 179.207V181.478C0.330505 182.582 1.27205 183.478 2.3766 183.471C115.064 182.774 126.386 124.499 227.223 127.221C228.354 127.251 229.339 126.347 229.339 125.215V124.108C229.339 123.032 228.448 122.147 227.373 122.115Z" fill="url(#paint6_linear_2260_111475)"/>
<path opacity="0.5" d="M227.301 183.597C124.446 183.573 99.2258 181.728 2.28295 185.721C1.21161 185.765 0.330505 186.648 0.330505 187.72V188.326C0.330505 189.459 1.27197 190.365 2.40364 190.326C78.0671 187.718 150.176 189.215 227.336 189.241C228.441 189.242 229.339 188.346 229.339 187.242V185.598C229.339 184.493 228.406 183.598 227.301 183.597Z" fill="url(#paint7_linear_2260_111475)"/>
<path opacity="0.5" d="M228.264 146.353C125.168 141.848 105.663 186.251 1.79722 183.26C1.01244 183.237 0.330505 183.865 0.330505 184.65C0.330505 185.417 0.986892 186.04 1.75412 186.037C115.318 185.709 126.506 146.071 228.139 149.238C228.956 149.263 229.67 148.61 229.67 147.793C229.67 147.023 229.034 146.386 228.264 146.353Z" fill="url(#paint8_linear_2260_111475)"/>
<path opacity="0.5" d="M228.06 116.189C125.69 114.136 92.2204 93.1176 2.00868 92.8596C1.0964 92.857 0.330505 93.5967 0.330505 94.509C0.330505 95.4213 1.08421 96.1605 1.99648 96.1641C82.8754 96.4806 135.492 119.746 228.038 120.072C229.11 120.076 230 119.206 230 118.133C230 117.074 229.119 116.21 228.06 116.189Z" fill="url(#paint9_linear_2260_111475)"/>
<path opacity="0.5" d="M228.719 119.82C128.085 118.335 92.2858 147.405 1.59236 142.956C0.917544 142.923 0.330505 143.46 0.330505 144.135C0.330505 144.755 0.821065 145.27 1.43959 145.311C82.1775 150.594 135.138 120.456 228.674 122.381C229.393 122.396 230 121.818 230 121.099C230 120.401 229.418 119.83 228.719 119.82Z" fill="url(#paint10_linear_2260_111475)"/>
<path opacity="0.5" d="M228.845 146.644C125.007 144.734 95.1365 116.688 0.755988 119.464C0.527816 119.471 0.330505 119.288 0.330505 119.06C0.330505 118.845 0.503912 118.668 0.718138 118.656C90.4548 113.662 135.038 145.584 228.856 145.694C229.119 145.694 229.339 145.907 229.339 146.169C229.339 146.435 229.111 146.649 228.845 146.644Z" fill="url(#paint11_linear_2260_111475)"/>
<path opacity="0.5" d="M228.204 143.756C132.374 142.413 96.7577 93.539 1.95416 95.137C1.06595 95.152 0.330505 95.8788 0.330505 96.7671C0.330505 97.694 1.12028 98.4342 2.04672 98.4067C88.5249 95.8411 135.289 145.605 228.197 146.01C228.819 146.013 229.339 145.508 229.339 144.885C229.339 144.267 228.822 143.764 228.204 143.756Z" fill="url(#paint12_linear_2260_111475)"/>
<path opacity="0.5" d="M227.996 172.573C121.156 174.594 97.742 112.101 1.46227 119.375C0.836746 119.422 0.330505 119.946 0.330505 120.574C0.330505 121.276 0.955492 121.827 1.65596 121.776C93.7461 115.089 120.315 176.091 228.045 175.142C228.748 175.135 229.339 174.562 229.339 173.86C229.339 173.138 228.717 172.559 227.996 172.573Z" fill="url(#paint13_linear_2260_111475)"/>
<path opacity="0.5" d="M227.855 169.948C110.118 167.149 103.627 90.2673 1.26902 98.2165C0.75319 98.2565 0.330505 98.6897 0.330505 99.2071C0.330505 99.8038 0.879207 100.263 1.47196 100.195C96.936 89.2633 118.374 174.233 227.861 172.896C228.664 172.886 229.339 172.23 229.339 171.426C229.339 170.623 228.659 169.967 227.855 169.948Z" fill="url(#paint14_linear_2260_111475)"/>
<path opacity="0.5" d="M227.635 108.99C133.417 108.344 100.971 62.9257 1.99463 64.2286C0.905236 64.2429 0 65.1332 0 66.2227V67.9944C0 69.1201 0.953383 70.0226 2.07889 70.0018C91.414 68.3509 136.591 116.672 227.699 114.789C228.781 114.766 229.667 113.879 229.667 112.796V110.997C229.667 109.892 228.739 108.997 227.635 108.99Z" fill="url(#paint15_linear_2260_111475)"/>
<path opacity="0.5" d="M227.22 174.993C166.9 177.728 104.892 145.476 2.35041 145.056C1.24585 145.052 0.330505 145.947 0.330505 147.052V153.061C0.330505 154.134 1.23019 155.017 2.30149 155.063C146.11 161.238 140.98 183.448 227.289 183.794C228.393 183.798 229.339 182.902 229.339 181.798V177.004C229.339 175.853 228.37 174.94 227.22 174.993Z" fill="url(#paint16_linear_2260_111475)"/>
<path opacity="0.5" d="M227.625 102.922C123.561 101.959 107.333 27.5321 1.78194 28.7674C0.813672 28.7787 0 29.5704 0 30.5387C0 31.5206 0.840619 32.3161 1.8225 32.323C111.713 33.0942 115.746 103.609 227.569 107.187C228.692 107.223 229.667 106.321 229.667 105.197V104.931C229.667 103.826 228.729 102.932 227.625 102.922Z" fill="url(#paint17_linear_2260_111475)"/>
<path opacity="0.5" d="M229.049 142.724C125.686 147.69 103.562 25.6224 1.20774 32.2739C0.542067 32.3171 0 32.874 0 33.541C0 34.2874 0.67242 34.8707 1.41677 34.8157C103.577 27.2647 120.865 150 229.114 143.874C229.418 143.856 229.67 143.604 229.67 143.299C229.67 142.97 229.378 142.708 229.049 142.724Z" fill="url(#paint18_linear_2260_111475)"/>
<path opacity="0.5" d="M227.453 160.423C124.927 164.517 105.812 28.4403 1.38701 34.4502C0.623969 34.4942 0 35.1311 0 35.8954C0 36.736 0.747966 37.3985 1.5874 37.3545C105.874 31.8932 121.185 166.342 227.617 163.915C228.557 163.894 229.339 163.12 229.339 162.18C229.339 161.177 228.456 160.383 227.453 160.423Z" fill="url(#paint19_linear_2260_111475)"/>
<defs>
<linearGradient id="paint0_linear_2260_111475" x1="0.360848" y1="14.5737" x2="227.598" y2="40.2593" gradientUnits="userSpaceOnUse">
<stop stop-color="#9945FF"/>
<stop offset="1" stop-color="#10AC84"/>
</linearGradient>
<linearGradient id="paint1_linear_2260_111475" x1="0.360822" y1="37.3327" x2="229.496" y2="50.9529" gradientUnits="userSpaceOnUse">
<stop stop-color="#9548FC"/>
<stop offset="1" stop-color="#09FFC0"/>
</linearGradient>
<linearGradient id="paint2_linear_2260_111475" x1="0.360778" y1="58.6963" x2="229.508" y2="69.0332" gradientUnits="userSpaceOnUse">
<stop stop-color="#9548FC"/>
<stop offset="1" stop-color="#09FFC0"/>
</linearGradient>
<linearGradient id="paint3_linear_2260_111475" x1="0.360822" y1="84.2363" x2="230.129" y2="90.6174" gradientUnits="userSpaceOnUse">
<stop stop-color="#9548FC"/>
<stop offset="1" stop-color="#09FFC0"/>
</linearGradient>
<linearGradient id="paint4_linear_2260_111475" x1="0.360778" y1="71.8691" x2="229.701" y2="79.7866" gradientUnits="userSpaceOnUse">
<stop stop-color="#9548FC"/>
<stop offset="1" stop-color="#09FFC0"/>
</linearGradient>
<linearGradient id="paint5_linear_2260_111475" x1="0.360822" y1="101.997" x2="230.198" y2="106.989" gradientUnits="userSpaceOnUse">
<stop stop-color="#9548FC"/>
<stop offset="1" stop-color="#09FFC0"/>
</linearGradient>
<linearGradient id="paint6_linear_2260_111475" x1="0.360778" y1="136.89" x2="229.69" y2="144.973" gradientUnits="userSpaceOnUse">
<stop stop-color="#9548FC"/>
<stop offset="1" stop-color="#09FFC0"/>
</linearGradient>
<linearGradient id="paint7_linear_2260_111475" x1="0.360778" y1="184.906" x2="211.135" y2="247.92" gradientUnits="userSpaceOnUse">
<stop stop-color="#9548FC"/>
<stop offset="1" stop-color="#09FFC0"/>
</linearGradient>
<linearGradient id="paint8_linear_2260_111475" x1="0.360822" y1="155.718" x2="229.632" y2="168.153" gradientUnits="userSpaceOnUse">
<stop stop-color="#9548FC"/>
<stop offset="1" stop-color="#09FFC0"/>
</linearGradient>
<linearGradient id="paint9_linear_2260_111475" x1="0.360865" y1="99.4473" x2="229.179" y2="117.715" gradientUnits="userSpaceOnUse">
<stop stop-color="#9548FC"/>
<stop offset="1" stop-color="#09FFC0"/>
</linearGradient>
<linearGradient id="paint10_linear_2260_111475" x1="0.360865" y1="126.101" x2="229.06" y2="145.092" gradientUnits="userSpaceOnUse">
<stop stop-color="#9548FC"/>
<stop offset="1" stop-color="#09FFC0"/>
</linearGradient>
<linearGradient id="paint11_linear_2260_111475" x1="0.360778" y1="125.033" x2="228.658" y2="142.373" gradientUnits="userSpaceOnUse">
<stop stop-color="#9548FC"/>
<stop offset="1" stop-color="#09FFC0"/>
</linearGradient>
<linearGradient id="paint12_linear_2260_111475" x1="0.360778" y1="107.426" x2="229.559" y2="117.18" gradientUnits="userSpaceOnUse">
<stop stop-color="#9548FC"/>
<stop offset="1" stop-color="#09FFC0"/>
</linearGradient>
<linearGradient id="paint13_linear_2260_111475" x1="0.360778" y1="132.433" x2="229.636" y2="141.246" gradientUnits="userSpaceOnUse">
<stop stop-color="#9548FC"/>
<stop offset="1" stop-color="#09FFC0"/>
</linearGradient>
<linearGradient id="paint14_linear_2260_111475" x1="0.360778" y1="115.865" x2="229.784" y2="122.469" gradientUnits="userSpaceOnUse">
<stop stop-color="#9548FC"/>
<stop offset="1" stop-color="#09FFC0"/>
</linearGradient>
<linearGradient id="paint15_linear_2260_111475" x1="0.0303598" y1="76.4624" x2="229.881" y2="86.3251" gradientUnits="userSpaceOnUse">
<stop stop-color="#9548FC"/>
<stop offset="1" stop-color="#09FFC0"/>
</linearGradient>
<linearGradient id="paint16_linear_2260_111475" x1="0.360778" y1="154.433" x2="229.259" y2="167.234" gradientUnits="userSpaceOnUse">
<stop stop-color="#9548FC"/>
<stop offset="1" stop-color="#09FFC0"/>
</linearGradient>
<linearGradient id="paint17_linear_2260_111475" x1="0.0303598" y1="47.7573" x2="230.128" y2="54.1271" gradientUnits="userSpaceOnUse">
<stop stop-color="#9548FC"/>
<stop offset="1" stop-color="#09FFC0"/>
</linearGradient>
<linearGradient id="paint18_linear_2260_111475" x1="0.0303579" y1="58.1796" x2="230.222" y2="62.5922" gradientUnits="userSpaceOnUse">
<stop stop-color="#9548FC"/>
<stop offset="1" stop-color="#10AC84"/>
</linearGradient>
<linearGradient id="paint19_linear_2260_111475" x1="0.0303189" y1="64.4464" x2="229.913" y2="68.2458" gradientUnits="userSpaceOnUse">
<stop stop-color="#9945FF"/>
<stop offset="1" stop-color="#10AC84"/>
</linearGradient>
</defs>
</svg>
