<svg width="280" height="282" viewBox="0 0 280 282" fill="none" xmlns="http://www.w3.org/2000/svg">
<ellipse cx="77.4986" cy="176.823" rx="3.20518" ry="3.22933" fill="#39DEBE"/>
<ellipse cx="74.2942" cy="146.375" rx="3.20518" ry="3.22933" fill="#39DEBE"/>
<ellipse cx="108.633" cy="185.127" rx="3.20518" ry="3.22933" fill="#39DEBE"/>
<ellipse cx="162.666" cy="174.516" rx="3.20518" ry="3.22933" fill="#39DEBE"/>
<ellipse cx="93.9821" cy="107.623" rx="3.20518" ry="3.22933" fill="#39DEBE"/>
<ellipse cx="111.841" cy="139.455" rx="3.20518" ry="3.22933" fill="#39DEBE"/>
<ellipse cx="208.454" cy="162.983" rx="3.20518" ry="3.22933" fill="#39DEBE"/>
<ellipse cx="211.658" cy="108.084" rx="3.20518" ry="3.22933" fill="#39DEBE"/>
<ellipse cx="123.287" cy="75.7907" rx="3.20518" ry="3.22933" fill="#39DEBE"/>
<ellipse cx="67.8837" cy="64.7187" rx="3.20518" ry="3.22933" fill="#39DEBE"/>
<ellipse cx="162.666" cy="54.108" rx="3.20518" ry="3.22933" fill="#39DEBE"/>
<ellipse cx="217.154" cy="60.5667" rx="3.20518" ry="3.22933" fill="#39DEBE"/>
<ellipse cx="242.795" cy="89.1694" rx="3.20518" ry="3.22933" fill="#39DEBE"/>
<line x1="34.5" y1="37.5" x2="34.5" y2="210.039" stroke="#484848"/>
<line x1="34" y1="210" x2="246" y2="210" stroke="#484848"/>
<g filter="url(#filter0_d_2260_113212)">
<ellipse cx="167.665" cy="100.28" rx="27.4364" ry="27.7184" fill="#39DEBE"/>
</g>
<defs>
<filter id="filter0_d_2260_113212" x="-9.771" y="-73.4386" width="354.873" height="355.437" filterUnits="userSpaceOnUse" color-interpolation-filters="sRGB">
<feFlood flood-opacity="0" result="BackgroundImageFix"/>
<feColorMatrix in="SourceAlpha" type="matrix" values="0 0 0 0 0 0 0 0 0 0 0 0 0 0 0 0 0 0 127 0" result="hardAlpha"/>
<feOffset dy="4"/>
<feGaussianBlur stdDeviation="75"/>
<feColorMatrix type="matrix" values="0 0 0 0 0.223529 0 0 0 0 0.870588 0 0 0 0 0.745098 0 0 0 0.3 0"/>
<feBlend mode="normal" in2="BackgroundImageFix" result="effect1_dropShadow_2260_113212"/>
<feBlend mode="normal" in="SourceGraphic" in2="effect1_dropShadow_2260_113212" result="shape"/>
</filter>
</defs>
</svg>
