<svg width="234" height="200" viewBox="0 0 234 200" fill="none" xmlns="http://www.w3.org/2000/svg">
<path opacity="0.35" d="M232.379 33.8758L232.999 31.6238V163.49H1V51.7407L4.41176 42.1185L6.47951 54.8116L7.61674 51.3313L8.85739 63.6149L12.2691 58.7015H13.1996L13.8199 57.2684L14.7504 59.2133L16.3012 54.2998L18.5757 54.5045L20.6434 51.536L21.8841 54.5045H22.8145L23.5383 57.9849L24.0552 50.3076L25.1924 48.6698C25.8128 51.4336 27.1361 57.166 27.4669 57.9849C27.7978 58.8038 28.5697 58.9403 28.9144 58.9062L29.9482 55.3235L30.6719 60.2369H32.4295L33.8769 55.8353L34.704 55.7329L36.1514 58.9062H37.0819L37.7022 53.5833L38.7361 54.5045L39.4598 52.7643L40.2869 54.5045H41.0106L41.941 52.7643H43.5952L45.0426 59.418L48.351 51.6383L48.8679 48.158L50.6255 45.7012L51.6594 47.3391L52.9 42.528L54.8643 47.6461L56.105 41.5043H57.2422L58.4829 50.9218L60.2404 45.7012L61.1709 47.3391L62.5149 43.0398H63.4454L64.1691 41.4019H65.0996L66.3402 39.9688L69.1317 47.6461L69.752 38.7405L70.8892 38.6381L71.5096 37.1027L72.2333 38.7405L73.2671 37.7168L74.6112 44.8823L76.162 37.1027L77.0924 38.7405L77.9195 37.1027H78.7466L79.3669 43.0398H80.2974L81.0211 35.9766L81.8482 41.9138L84.1227 34.3388H85.1566L85.7769 32.701L87.5345 34.5435L88.1548 28.6064L89.9124 24.0001L90.636 38.2632L91.8767 37.1372L93.0139 38.9798L94.6681 37.8538L95.3918 32.5309L96.2189 35.9089H98.5968L100.251 38.468L100.975 33.4176L102.009 31.1655L102.629 34.5435L103.973 41.7436L105.11 40.1058L105.73 31.3703H106.764L107.385 35.9766L108.315 33.4176L109.866 39.3547L110.486 34.3388L111.623 32.9057L112.244 41.5389H113.071L114.001 31.575L114.622 40.3105H115.449L116.173 35.6018L117.206 37.342H118.757L120.411 33.0427L120.825 28.7434H121.962L124.237 40.3105L125.994 46.6879L126.511 38.0239L127.545 49.0423L128.165 37.5121L129.406 35.5672L130.647 37.0003L131.37 37.205L132.094 38.6381H133.128L133.852 40.1736L134.679 38.331L135.506 40.3783L136.126 35.8743L136.85 34.2365H137.987L140.262 43.7773L141.089 34.7483L143.26 40.3451L145.121 40.4474L146.051 36.8647L147.499 47.92L148.429 46.1798L148.946 40.3451H149.98L150.6 43.3136L151.531 41.8806L153.081 29.904L154.632 36.2505L155.459 31.2347L157.114 35.9434L159.285 44.4397L160.422 44.8491C160.422 44.8491 161.766 31.5409 161.766 36.1814L163.42 53.7934L164.351 55.4312H165.901L166.522 53.9981H169.003L170.864 57.1714L172.105 52.7698H173.242L173.759 47.1397L174.689 45.2972L175.516 46.8327L176.343 52.4471L177.998 47.1397L178.515 45.8958L179.548 49.7856H181.099L181.823 45.1792L183.58 46.8171L184.304 39.1398L186.785 47.3289L188.233 36.2736L188.957 41.6989L189.68 38.1161H190.714L191.541 36.5807L192.472 38.1161L194.539 53.449L195.47 29.6199L197.124 53.8585H197.951L199.605 51.0947L200.329 38.7086L202.707 53.449L204.258 41.3701L205.085 49.0474L205.809 43.6221L207.463 46.7954L208.393 45.0552L209.22 48.8427L210.564 39.4252C211.012 39.5275 212.177 39.6708 213.252 39.4252C214.328 39.1795 215.01 39.2776 215.217 35.456L216.354 37.2986C216.457 36.9232 216.747 35.845 217.078 34.5347C217.491 32.8969 218.525 33.1017 219.145 32.3851C219.642 31.8119 219.904 27.5057 219.972 25.4243L221.937 29.1095L222.661 24.196L223.591 26.3456L224.315 38.3798L225.452 27.9834L227.416 39.3011L229.174 24.4007L231.035 32.1356L232.379 33.8758Z" fill="url(#paint0_linear_2260_111474)"/>
<path d="M232.999 31.6237L232.379 33.8757L231.035 32.1356L229.174 24.4006L227.416 39.301L225.452 27.9834L224.315 38.3798L223.591 26.3456L222.661 24.1959L221.937 29.1094L219.972 25.4243C219.904 27.5057 219.642 31.8118 219.145 32.385C218.525 33.1016 217.491 32.8969 217.078 34.5347C216.747 35.8449 216.457 36.9232 216.354 37.2985L215.217 35.4559C215.01 39.2775 214.328 39.1794 213.252 39.4251C212.177 39.6708 211.012 39.5275 210.564 39.4251L209.22 48.8426L208.393 45.0551L207.463 46.7953L205.809 43.622L205.085 49.0473L204.258 41.37L202.707 53.449L200.329 38.7086L199.605 51.0946L197.951 53.8584H197.124L195.47 29.6199L194.539 53.449L192.472 38.1161L191.541 36.5806L190.714 38.1161H189.68L188.957 41.6988L188.233 36.2735L186.785 47.3288L184.304 39.1397L183.58 46.817L181.823 45.1792L181.099 49.7856H179.548L178.515 45.8957L177.998 47.1397L176.343 52.447L175.516 46.8326L174.689 45.2971L173.759 47.1397L173.242 52.7697H172.105L170.864 57.1714L169.003 53.9981H166.522L165.901 55.4312H164.351L163.42 53.7933L161.766 36.1813C161.766 31.5408 160.422 44.849 160.422 44.849L159.285 44.4396L157.114 35.9434L155.459 31.2346L154.632 36.2505L153.081 29.9039L151.531 41.8805L150.6 43.3136L149.98 40.345H148.946L148.429 46.1798L147.499 47.92L146.051 36.8646L145.121 40.4474L143.26 40.345L141.089 34.7482L140.262 43.7773L137.987 34.2364H136.85L136.126 35.8742L135.506 40.3782L134.679 38.331L133.852 40.1735L133.128 38.6381H132.094L131.37 37.205L130.647 37.0002L129.406 35.5671L128.165 37.512L127.545 49.0422L126.511 38.0239L125.994 46.6879L124.237 40.3104L121.962 28.7433H120.825L120.411 33.0426L118.757 37.3419H117.206L116.172 35.6017L115.449 40.3104H114.622L114.001 31.5749L113.071 41.5388H112.244L111.623 32.9057L110.486 34.3388L109.866 39.3546L108.315 33.4175L107.385 35.9766L106.764 31.3702H105.73L105.11 40.1057L103.973 41.7435L102.629 34.5435L102.009 31.1655L100.975 33.4175L100.251 38.4679L98.5968 35.9088H96.2189L95.3918 32.5308L94.6681 37.8537L93.0139 38.9797L91.8767 37.1372L90.636 38.2632L89.9123 24L88.1548 28.6064L87.5345 34.5435L85.7769 32.7009L85.1566 34.3388H84.1227L81.8482 41.9137L81.0211 35.9766L80.2974 43.0397H79.3669L78.7466 37.1026H77.9195L77.0924 38.7404L76.162 37.1026L74.6111 44.8823L73.2671 37.7168L72.2333 38.7404L71.5096 37.1026L70.8892 38.6381L69.752 38.7404L69.1317 47.6461L66.3402 39.9688L65.0996 41.4019H64.1691L63.4454 43.0397H62.5149L61.1709 47.339L60.2404 45.7012L58.4829 50.9217L57.2422 41.5042H56.105L54.8643 47.6461L52.9 42.5279L51.6594 47.339L50.6255 45.7012L48.8679 48.1579L48.351 51.6383L45.0426 59.4179L43.5952 52.7643H41.941L41.0106 54.5045H40.2869L39.4598 52.7643L38.7361 54.5045L37.7022 53.5832L37.0819 58.9061H36.1514L34.704 55.7328L33.8769 55.8352L32.4295 60.2369H30.6719L29.9482 55.3234L28.9143 58.9061C28.5697 58.9402 27.7978 58.8038 27.4669 57.9848C27.1361 57.1659 25.8127 51.4336 25.1924 48.6697L24.0552 50.3075L23.5382 57.9848L22.8145 54.5045H21.8841L20.6434 51.5359L18.5757 54.5045L16.3012 54.2997L14.7504 59.2132L13.8199 57.2683L13.1996 58.7014H12.2691L8.85738 63.6149L7.61674 51.3312L6.47949 54.8116L4.41175 42.1184L0.999997 51.7406" stroke="#39DEBE" stroke-width="2"/>
<path opacity="0.35" d="M1.62111 119.516L1.00079 121.768V179.313H233V93.8481L229.588 103.47L227.52 90.7771L226.383 94.2575L225.143 81.9738L221.731 86.8873H220.8L220.18 88.3204L219.25 86.3755L217.699 91.289L215.424 91.0842L213.357 94.0528L212.116 91.0842H211.185L210.462 87.6039L209.945 95.2812L208.808 96.919C208.187 94.1552 206.864 88.4228 206.533 87.6039C206.202 86.7849 205.43 86.6485 205.086 86.6826L204.052 90.2653L203.328 85.3519H201.57L200.123 89.7535L199.296 89.8559L197.849 86.6826H196.918L196.298 92.0055L195.264 91.0842L194.54 92.8244L193.713 91.0842H192.989L192.059 92.8244H190.405L188.957 86.1708L185.649 93.9504L185.132 97.4308L183.374 99.8875L182.341 98.2497L181.1 103.061L179.136 97.9426L177.895 104.084H176.758L175.517 94.667L173.76 99.8875L172.829 98.2497L171.485 102.549H170.555L169.831 104.187H168.9L167.66 105.62L164.868 97.9426L164.248 106.848L163.111 106.951L162.49 108.486L161.767 106.848L160.733 107.872L159.389 100.706L157.838 108.486L156.908 106.848L156.08 108.486H155.253L154.633 102.549H153.703L152.979 109.612L152.152 103.675L149.877 111.25H148.843L148.223 112.888L146.466 111.045L145.845 116.982L144.088 121.589L143.364 119.03L142.123 120.156L140.986 118.313L139.332 119.439L138.608 124.762L137.781 121.384H135.403L133.749 118.825L133.025 112.171L131.991 114.423L131.371 111.045L130.027 115.549L128.89 117.187L128.269 114.219H127.236L126.615 109.612L125.685 112.171L124.134 106.234L123.514 111.25L122.376 112.683L121.756 115.754H120.929L119.999 114.014L119.378 116.982H118.551L117.827 121.691L116.794 119.951H115.243L113.589 124.25L113.175 128.549H112.038L109.763 116.982L108.006 114.116L107.489 107.565L106.455 111.762L105.835 108.077L104.594 110.022L103.353 108.588L102.63 108.384L101.906 99.1479H100.872L100.148 97.6125L99.3213 99.455L98.4942 97.4078L97.8739 101.912L97.1502 103.55H96.0129L93.7384 108.054L92.9113 103.038L90.7402 105.244L88.8793 105.141L87.9488 108.724L86.5014 97.6688L85.5709 99.4089L85.054 105.244H84.0201L83.3998 102.275L82.4693 103.708L80.9185 115.685L79.3677 109.338L78.5406 114.354L76.8864 109.645L74.7153 101.149L73.5781 100.74C73.5781 100.74 72.234 90.6398 72.234 85.9993L70.5799 91.0151L69.6494 89.3773H68.0986L67.4783 90.8104H64.997L63.136 87.6371L61.8954 92.0387H60.7582L60.2412 97.6688L59.3107 99.5113L58.4837 97.9758L57.6566 100.944L56.0024 97.6688L55.4854 107.496L54.4516 103.606H52.9008L52.1771 108.212L50.4195 106.574L49.6958 114.252L47.2145 106.063L45.7671 117.118L45.0434 111.693L44.3197 115.275H43.2858L42.4588 116.811L41.5283 115.275L39.4605 99.9425L38.5301 96.4621L36.8759 99.533H36.0488L34.3946 102.297L33.6709 114.683L31.293 99.9425L29.7422 112.021L28.9151 104.344L28.1914 109.769L26.5372 106.596L25.6068 108.336L24.7797 104.549L23.4356 113.966C22.9876 113.864 21.8228 113.721 20.7476 113.966C19.6724 114.212 18.99 121.917 18.7833 125.738L17.646 123.896C17.5426 124.271 17.2531 125.349 16.9223 126.659C16.5088 128.297 15.4749 128.093 14.8546 128.809C14.3583 129.382 14.0964 106.379 14.0275 108.46L12.0631 104.775L11.3394 109.689L10.409 107.539L9.68526 115.012L8.548 105.901L6.58366 114.09L4.82609 109.484L2.96514 121.256L1.62111 119.516Z" fill="url(#paint1_linear_2260_111474)"/>
<path d="M1.00079 121.768L1.62111 119.516L2.96514 121.256L4.82609 109.484L6.58366 114.09L8.548 105.901L9.68525 115.012L10.409 107.539L11.3394 109.689L12.0631 104.775L14.0275 108.46C14.0964 106.379 14.3583 129.382 14.8546 128.809C15.4749 128.093 16.5088 128.297 16.9223 126.659C17.2531 125.349 17.5426 124.271 17.646 123.896L18.7833 125.738C18.99 121.917 19.6724 114.212 20.7476 113.966C21.8228 113.721 22.9876 113.864 23.4357 113.966L24.7797 104.549L25.6068 108.336L26.5372 106.596L28.1914 109.769L28.9151 104.344L29.7422 112.021L31.293 99.9424L33.6709 114.683L34.3946 102.297L36.0488 99.533H36.8759L38.5301 96.4621L39.4605 99.9424L41.5283 115.275L42.4588 116.811L43.2858 115.275H44.3197L45.0434 111.693L45.7671 117.118L47.2145 106.063L49.6958 114.252L50.4195 106.574L52.1771 108.212L52.9008 103.606H54.4516L55.4854 107.496L56.0024 97.6687L57.6566 100.944L58.4837 97.9758L59.3107 99.5113L60.2412 97.6687L60.7582 92.0387H61.8954L63.136 87.6371L64.997 90.8104H67.4783L68.0986 89.3773H69.6494L70.5799 91.0151L72.234 85.9993C72.234 90.6398 73.5781 100.74 73.5781 100.74L74.7153 101.149L76.8864 109.645L78.5406 114.354L79.3677 109.338L80.9185 115.685L82.4693 103.708L83.3998 102.275L84.0201 105.244H85.054L85.5709 99.4089L86.5014 97.6687L87.9488 108.724L88.8793 105.141L90.7402 105.244L92.9113 103.038L93.7384 108.054L96.0129 103.55H97.1502L97.8739 101.912L98.4942 97.4078L99.3213 99.455L100.148 97.6125L100.872 99.1479H101.906L102.63 108.384L103.353 108.588L104.594 110.022L105.835 108.077L106.455 111.762L107.489 107.565L108.006 114.116L109.763 116.982L112.038 128.549H113.175L113.589 124.25L115.243 119.951H116.794L117.827 121.691L118.551 116.982H119.378L119.999 114.014L120.929 115.754H121.756L122.376 112.683L123.514 111.25L124.134 106.234L125.685 112.171L126.615 109.612L127.236 114.218H128.269L128.89 117.187L130.027 115.549L131.371 111.045L131.991 114.423L133.025 112.171L133.749 118.825L135.403 121.384H137.781L138.608 124.762L139.332 119.439L140.986 118.313L142.123 120.156L143.364 119.03L144.088 121.589L145.845 116.982L146.466 111.045L148.223 112.888L148.843 111.25H149.877L152.152 103.675L152.979 109.612L153.703 102.549H154.633L155.253 108.486H156.08L156.908 106.848L157.838 108.486L159.389 100.706L160.733 107.872L161.767 106.848L162.49 108.486L163.111 106.951L164.248 106.848L164.868 97.9426L167.66 105.62L168.9 104.187H169.831L170.555 102.549H171.485L172.829 98.2497L173.76 99.8875L175.517 94.667L176.758 104.084H177.895L179.136 97.9426L181.1 103.061L182.341 98.2497L183.374 99.8875L185.132 97.4308L185.649 93.9504L188.957 86.1708L190.405 92.8244H192.059L192.989 91.0842H193.713L194.54 92.8244L195.264 91.0842L196.298 92.0055L196.918 86.6826H197.849L199.296 89.8559L200.123 89.7535L201.57 85.3519H203.328L204.052 90.2653L205.086 86.6826C205.43 86.6485 206.202 86.7849 206.533 87.6039C206.864 88.4228 208.187 94.1552 208.808 96.919L209.945 95.2812L210.462 87.6039L211.185 91.0842H212.116L213.357 94.0528L215.424 91.0842L217.699 91.289L219.25 86.3755L220.18 88.3204L220.8 86.8873H221.731L225.143 81.9738L226.383 94.2575L227.52 90.7771L229.588 103.47L233 93.8481" stroke="#7033FF" stroke-width="2"/>
<path opacity="0.35" d="M232.379 191.506L232.999 193.758V200H1V154.134L4.41174 163.756L6.47949 151.063L7.61674 154.543L8.85738 142.26L12.2691 147.173H13.1996L13.8199 148.606L14.7504 146.661L16.3012 151.575L18.5757 151.37L20.6434 154.339L21.8841 151.37H22.8145L23.5383 147.89L24.0552 155.567L25.1924 157.205C25.8127 154.441 27.1361 148.709 27.4669 147.89C27.7978 147.071 28.5697 146.934 28.9143 146.969L29.9482 150.551L30.6719 145.638H32.4295L33.8769 150.039L34.704 150.142L36.1514 146.969H37.0819L37.7022 152.291L38.7361 151.37L39.4598 153.11L40.2868 151.37H41.0106L41.941 153.11H43.5952L45.0426 146.457L48.351 154.236L48.8679 157.717L50.6255 160.173L51.6594 158.536L52.9 163.347L54.8643 158.229L56.105 164.37H57.2422L58.4829 154.953L60.2404 160.173L61.1709 158.536L62.5149 162.835H63.4454L64.1691 164.473H65.0996L66.3402 165.906L69.1317 158.229L69.752 167.134L70.8892 167.237L71.5096 168.772L72.2333 167.134L73.2671 168.158L74.6111 160.992L76.162 168.772L77.0924 167.134L77.9195 168.772H78.7466L79.3669 162.835H80.2974L81.0211 169.898L81.8482 163.961L84.1227 171.536H85.1566L85.7769 173.174L87.5345 171.331L88.1548 177.268L89.9124 181.875L90.636 179.316L91.8767 180.442L93.0139 178.599L94.6681 179.725L95.3918 185.048L96.2189 181.67H98.5968L100.251 179.111L100.975 172.457L102.009 174.709L102.629 171.331L103.973 175.835L105.11 177.473L105.73 174.504H106.764L107.385 169.898L108.315 172.457L109.866 166.52L110.486 171.536L111.623 172.969L112.244 176.04H113.071L114.001 174.3L114.622 177.268H115.449L116.172 181.977L117.206 180.237H118.757L120.411 184.536L120.825 188.835H121.962L124.237 177.268L125.994 174.402L126.511 167.851L127.545 172.048L128.165 168.363L129.406 170.308L130.647 168.874L131.37 168.67L132.094 167.237H133.128L133.852 165.701L134.679 167.544L135.506 165.496L136.126 170L136.85 171.638H137.987L140.262 164.438L141.089 159.422L143.26 157.727L145.121 157.625L146.051 161.207L147.499 169.659L148.429 171.399L148.946 157.727H149.98L150.6 154.758L151.531 156.191L153.081 168.168L154.632 161.821L155.459 166.837L157.114 162.129L159.285 173.139L160.422 172.73C160.422 172.73 161.766 162.63 161.766 157.989L163.42 163.005L164.351 161.367H165.901L166.522 162.8H169.003L170.864 159.627L172.105 164.029H173.242L173.759 169.659L174.689 151.995L175.516 150.459L176.343 153.428L177.998 150.152L178.515 159.979L179.548 156.089H181.099L181.823 160.695L183.58 143.452L184.304 151.13L186.785 142.94L188.233 153.996L188.957 148.57L189.68 152.153H190.714L191.541 153.689L192.472 152.153L194.539 164.13L195.47 160.649L197.124 163.72H197.951L199.605 146.977L200.329 159.363L202.707 164.13L204.258 156.702L205.085 149.025L205.809 154.45L207.463 151.277L208.393 153.017L209.22 149.229L210.564 158.647C211.012 158.544 212.177 158.401 213.252 158.647C214.328 158.892 215.01 166.597 215.217 170.419L216.354 168.576C216.457 168.951 216.747 170.03 217.078 171.34C217.491 172.978 218.525 172.773 219.145 173.49C219.642 174.063 219.904 178.369 219.972 180.45L221.937 176.765L222.661 181.679L223.591 179.529L224.315 187.002L225.452 177.891L227.416 186.08L229.174 181.474L231.035 193.246L232.379 191.506Z" fill="url(#paint2_linear_2260_111474)"/>
<path d="M232.999 193.758L232.379 191.506L231.035 193.246L229.174 181.474L227.416 186.08L225.452 177.891L224.315 187.002L223.591 179.529L222.661 181.679L221.937 176.765L219.972 180.45C219.904 178.369 219.642 174.063 219.145 173.49C218.525 172.773 217.491 172.978 217.078 171.34C216.747 170.03 216.457 168.951 216.354 168.576L215.217 170.419C215.01 166.597 214.328 158.892 213.252 158.647C212.177 158.401 211.012 158.544 210.564 158.647L209.22 149.229L208.393 153.017L207.463 151.277L205.809 154.45L205.085 149.025L204.258 156.702L202.707 164.13L200.329 159.363L199.605 146.977L197.951 163.72H197.124L195.47 160.649L194.539 164.13L192.472 152.153L191.541 153.689L190.714 152.153H189.68L188.957 148.57L188.233 153.996L186.785 142.94L184.304 151.13L183.58 143.452L181.823 160.695L181.099 156.089H179.548L178.515 159.979L177.998 150.152L176.343 153.428L175.516 150.459L174.689 151.995L173.759 169.659L173.242 164.029H172.105L170.864 159.627L169.003 162.8H166.522L165.901 161.367H164.351L163.42 163.005L161.766 157.989C161.766 162.63 160.422 172.73 160.422 172.73L159.285 173.139L157.114 162.129L155.459 166.837L154.632 161.821L153.081 168.168L151.531 156.191L150.6 154.758L149.98 157.727H148.946L148.429 171.399L147.499 169.659L146.051 161.207L145.121 157.625L143.26 157.727L141.089 159.422L140.262 164.438L137.987 171.638H136.85L136.126 170L135.506 165.496L134.679 167.544L133.852 165.701L133.128 167.237H132.094L131.37 168.67L130.647 168.874L129.406 170.307L128.165 168.363L127.545 172.048L126.511 167.851L125.994 174.402L124.237 177.268L121.962 188.835H120.825L120.411 184.536L118.757 180.237H117.206L116.172 181.977L115.449 177.268H114.622L114.001 174.3L113.071 176.04H112.244L111.623 172.969L110.486 171.536L109.866 166.52L108.315 172.457L107.385 169.898L106.764 174.504H105.73L105.11 177.473L103.973 175.835L102.629 171.331L102.009 174.709L100.975 172.457L100.251 179.111L98.5968 181.67H96.2189L95.3918 185.048L94.6681 179.725L93.0139 178.599L91.8767 180.442L90.636 179.316L89.9123 181.875L88.1548 177.268L87.5345 171.331L85.7769 173.174L85.1566 171.536H84.1227L81.8482 163.961L81.0211 169.898L80.2974 162.835H79.3669L78.7466 168.772H77.9195L77.0924 167.134L76.162 168.772L74.6111 160.992L73.2671 168.158L72.2333 167.134L71.5096 168.772L70.8892 167.237L69.752 167.134L69.1317 158.229L66.3402 165.906L65.0996 164.473H64.1691L63.4454 162.835H62.5149L61.1709 158.536L60.2404 160.173L58.4829 154.953L57.2422 164.37H56.105L54.8643 158.229L52.9 163.347L51.6594 158.536L50.6255 160.173L48.8679 157.717L48.351 154.236L45.0426 146.457L43.5952 153.11H41.941L41.0106 151.37H40.2869L39.4598 153.11L38.7361 151.37L37.7022 152.291L37.0819 146.969H36.1514L34.704 150.142L33.8769 150.039L32.4295 145.638H30.6719L29.9482 150.551L28.9143 146.969C28.5697 146.934 27.7978 147.071 27.4669 147.89C27.1361 148.709 25.8127 154.441 25.1924 157.205L24.0552 155.567L23.5382 147.89L22.8145 151.37H21.8841L20.6434 154.339L18.5757 151.37L16.3012 151.575L14.7504 146.661L13.8199 148.606L13.1996 147.173H12.2691L8.85738 142.26L7.61674 154.543L6.47949 151.063L4.41175 163.756L0.999997 154.134" stroke="#F65164" stroke-width="2"/>
<defs>
<linearGradient id="paint0_linear_2260_111474" x1="117" y1="105.75" x2="117" y2="24.0001" gradientUnits="userSpaceOnUse">
<stop stop-color="#39DEBE" stop-opacity="0"/>
<stop offset="1" stop-color="#29C8A9" stop-opacity="0.8"/>
</linearGradient>
<linearGradient id="paint1_linear_2260_111474" x1="117" y1="94.8483" x2="117" y2="151.808" gradientUnits="userSpaceOnUse">
<stop stop-color="#7033FF" stop-opacity="0.8"/>
<stop offset="1" stop-color="#7033FF" stop-opacity="0"/>
</linearGradient>
<linearGradient id="paint2_linear_2260_111474" x1="117" y1="142.26" x2="117" y2="200" gradientUnits="userSpaceOnUse">
<stop stop-color="#F65164" stop-opacity="0.8"/>
<stop offset="1" stop-color="#F65164" stop-opacity="0.2"/>
</linearGradient>
</defs>
</svg>
